<?xml version="1.0" encoding="UTF-8"?>
<svg id="Capa_1" data-name="Capa 1" xmlns="http://www.w3.org/2000/svg" viewBox="0 0 1080 1080">
  <defs>
    <style>
      .cls-1 {
        fill: #fff;
      }

      .cls-2 {
        fill: #089cd8;
      }

      .cls-3 {
        fill: #effbfc;
      }

      .cls-4 {
        fill: #ebecee;
      }

      .cls-5 {
        fill: #6fc5e9;
      }

      .cls-6 {
        fill: #e9ecee;
      }

      .cls-7 {
        fill: #1171b2;
      }

      .cls-8 {
        fill: #069cda;
      }

      .cls-9 {
        fill: #2a77ab;
      }

      .cls-10 {
        fill: #178fc8;
      }

      .cls-11 {
        fill: #1374b2;
      }

      .cls-12 {
        fill: #6fc5e8;
      }

      .cls-13 {
        fill: #def9fc;
      }

      .cls-14 {
        fill: #6ec5e8;
      }

      .cls-15 {
        fill: #eaecef;
      }
    </style>
  </defs>
  <rect class="cls-1" x="328.01" y="134.34" width="116.76" height="439.01"/>
  <rect class="cls-1" x="112.4" y="395.55" width="74.72" height="210.16"/>
  <rect class="cls-1" x="500.81" y="398.21" width="91.07" height="109.75"/>
  <g>
    <path class="cls-5" d="M304.42,145.67c13.45-10.55,26.89-21.11,40.34-31.66,28.49-20.29,56.98-40.59,85.48-60.88,.07,.71,.16,1.69,.25,2.86,0,0,.19,2.42,.33,4.84,5.89,104.24,1.49,230.48,1.49,230.48-6.31,181.2-9.4,239.35-1.91,336.23,.41,5.31,.77,9.67,1.01,12.5-9.9,15.84-20.11,31.5-29.59,47.59-6,10.19-12.96,17.28-25.98,15.43-9.66-1.37-12.26,3.65-12.48,12.91-.34,14.04,.66,29.32-4.43,41.82-14.74,36.14-32.24,71.15-48.74,106.76-.45-.52-2.05-1.85-2.99-3.54-13.63-24.75-32.2-45.17-55.71-60.6-15.64-10.26-32.39-18.84-48.64-28.17,.99-3.89,2.59-7.74,2.87-11.68,1.27-17.72,2.4-35.45,3.14-53.2,.99-23.85,3.29-32.13,6.15-161.49,1.21-54.91,1.73-118.84,.62-190.35-1.46-6.18-2.92-12.37-4.38-18.55l-2.59-122.98c9.29-6.26,18.64-12.66,28.02-19.2,23.45-16.34,46.03-32.74,67.74-49.12Zm99.1,1.29c-11.57,6.51-19.6,10.4-26.88,15.38-3.62,2.48-8.37,7-8.32,10.53,.35,22.18,1.92,44.34,3.18,68.44,8.37-4.54,15.41-7.89,21.92-12.06,4.21-2.7,10.81-6.53,10.9-9.99,.56-23.21-.34-46.46-.81-72.3Zm4.37,326.73c0-5.24,.03-10.48,0-15.71-.13-21.41,.07-20.66-21.31-14.82-12.46,3.41-16.88,9.65-15.97,22.27,.93,13.02,.14,26.18-.22,39.26-.2,7.51,.42,11.25,10.32,9.17,26.79-5.61,26.92-5,27.18-32.32,.03-2.62,0-5.24,0-7.86Zm-100.63-196.73c9.15-4.86,15.67-9.15,22.79-11.91,9.34-3.62,12.16-9.75,11.49-19.35-1.3-18.59-1.74-37.24-2.69-59.3-9.02,5.92-15.74,9.57-21.52,14.34-4.86,4.01-12.13,9.25-12.26,14.11-.56,19.98,1.2,40.03,2.2,62.1Zm65.95,103.62c10.85-3.75,19.98-6.11,28.27-10.19,3.17-1.56,6.09-7,6.24-10.78,.65-16.77,.41-33.58,.07-50.36-.07-3.29-1.03-7.79-3.28-9.57-5.18-4.07-30.89,8.25-31.08,15.17-.59,21.34-.22,42.7-.22,65.73Zm-5.65,235.68c-.16,0-.32,0-.48,0,0,2.61,.03,5.23,0,7.84-.27,20.59,.53,21.48,21.37,16.97,4.82-1.04,12.58-4.43,12.96-7.49,2.18-17.55,2.83-35.32,3.16-53.03,.04-2.2-4.9-6.46-7.52-6.45-22.79,.12-28.56,6.17-29.46,29.6-.16,4.18-.02,8.36-.02,12.54Zm-25.76-290.15c-10.18,4.93-18.55,7.98-25.69,12.84-3.98,2.71-8.03,8.28-8.35,12.82-1.05,15.13-.59,30.38-.31,45.58,.05,2.72,1.22,6.64,3.21,7.87,5.03,3.12,30.88-10.06,30.99-15.87,.4-20.23,.15-40.48,.15-63.24Zm-.21,164.84c0-7.88,.2-15.78-.13-23.65-.1-2.28-1.11-5.46-2.79-6.54-4.72-3.05-31,9.72-31.43,15.3-1.21,15.66-1.89,31.36-2.82,47.04-.39,6.62,1.86,9.57,9.18,8.62,24.97-3.23,27.98-6.38,28.01-31.3,0-3.15,0-6.31-.02-9.46Zm-97.12-176.14c8.66-4.84,15.64-8.17,21.96-12.49,3.63-2.48,8.67-6.44,8.81-9.9,.84-20.13,.41-40.31,.41-63.5-11.17,7.19-19.81,12.03-27.52,18.06-3.27,2.55-6.5,7.64-6.45,11.52,.26,18.1,1.67,36.19,2.79,56.31Zm34.05,43.09c-11.16,5.4-19.87,8.88-27.69,13.76-3.32,2.07-6.59,7.01-6.77,10.8-.72,14.61-.35,29.29,.06,43.93,.07,2.57,1.72,6.58,3.66,7.36,7.15,2.84,30.58-14.41,30.68-22.36,.2-16.69,.06-33.39,.06-53.49Zm59.66,255.25c.09,0,.19,0,.28,0,0-4.18,.53-8.44-.13-12.51-.86-5.27,3.58-15.75-6.59-13.68-9.55,1.94-24.42-1.61-27.37,12.25-3.01,14.12-2.87,29-3.05,43.56-.04,3.06,4.26,8.58,7.04,8.9,21.45,2.51,29.21-4.6,29.81-25.99,.12-4.18,.02-8.36,.02-12.54Zm-62.6-99.36c.65-34.82,.5-35.12-25.76-22.12-3.92,1.94-7.45,7.96-8.11,12.54-1.34,9.23-.61,18.76-.68,28.16-.16,19.57-.38,18.37,18.94,14.61,13.05-2.54,17.74-8.04,15.71-20.67-.65-4.08-.1-8.34-.1-12.52Zm57.22,215.45c-.13-23.21-.07-22.33-22.24-20.9-10.42,.68-13.77,3.83-13.36,13.83,.27,6.7-1.62,13.45-2.16,20.21-1.92,24.19-1.57,24.11,22.63,23.5,8.74-.22,12.13-2.98,12.28-11.76,.14-8.31,1.84-16.59,2.85-24.89Zm-60.4-100.21s.09,0,.14,0c0-6.79,.13-13.58-.07-20.37-.07-2.51-1.14-7.21-1.33-7.18-8.06,.9-16.39,1.3-23.96,3.9-3.74,1.28-8.21,6.5-8.6,10.32-1.28,12.43-.64,25.04-1.11,37.56-.28,7.34,3.55,8.71,9.77,8.34,24.05-1.42,24.84-2.16,25.15-26.3,.03-2.09,0-4.18,0-6.27Zm-41.41,116.6c-.62,23.91-.62,23.54,22.24,23.05,8.66-.18,12.59-3.18,12.56-11.82-.03-8.37,.74-16.75,.42-25.1-.25-6.44,.01-17.25-2.87-18.34-6.1-2.29-14.36-.35-21.23,1.6-3.46,.98-7.38,5.35-8.38,8.95-1.93,6.94-1.93,14.41-2.74,21.66Z"/>
    <path class="cls-7" d="M853.21,273.44s-.03,.01-.03,.01c.03-.01,18.54-9.88,18.54-10v.11c2.12-1.14,4.25-2.29,6.38-3.43l-.21,.13c3.35-1.84,6.7-3.68,10.05-5.52,.46-.67,1.09-.92,1.88-.75,3.55-1.98,7.1-3.96,10.65-5.94,0,0-.09,.05-.09,.05,2.15-1.05,4.3-2.1,6.45-3.16l-.08,.04c2.13-1.06,4.27-2.12,6.4-3.17,0,0-.07,.04-.07,.04,4.22-2.12,8.45-4.25,12.67-6.37,0,0,.65-.65,.65-.65l.92,.05c2.49-1.13,4.98-2.27,7.47-3.4l-.21,.17c7.31-.8,14.62-1.6,24.49-2.69-3.42,3.14-5.23,4.91-7.15,6.55-11.59,9.87-23.2,19.7-34.8,29.55,0,0-.46-.85-.46-.85l.58,.77c-2.38,1.82-4.75,3.65-7.13,5.47,0,0,.06-.05,.06-.05-1.11,.86-2.21,1.72-3.32,2.58-.32,.73-.87,1.06-1.67,.97-3.28,2.39-6.57,4.77-9.85,7.16l.02,.09c-.65,.08-16.28,12.6-16.28,12.6-.97,.72-1.95,1.43-2.92,2.15l-23,18.24-1.39,.93c-1.48,1.1-2.96,2.2-4.44,3.29,0,0,.27-.11,.27-.11-2.32,1.92-4.65,3.84-6.97,5.77l.05-.04-18.84,16.03,.11-.09c-1.85,1.42-3.71,2.85-5.56,4.27l.06,.04c-.06-.04-13.34,11.49-13.45,11.68l.11-.19c-1.14,1.08-2.27,2.17-3.41,3.25l.14-.09c-1.78,1.45-3.56,2.91-5.34,4.36l-.08-.06c-1.11,.97-2.23,1.94-3.34,2.91l-.47-.68s.63,.54,.63,.54c-1.46,1.56-2.92,3.12-4.38,4.68-.27,.81-.83,1.21-1.69,1.19-1.32,1.16-2.65,2.33-3.97,3.49l.25-.18c-1.18,1.06-2.35,2.13-3.53,3.19l.22-.11c-3.32,3.05-6.64,6.1-9.96,9.15,0,0,.07-.08,.07-.08-5.79,1.33-13.21,.87-11.56,10.44l-.22,.15c-2.11,2.01-4.21,4.02-6.32,6.03l-.93-.92,.86,.98c-2.21,2.01-4.42,4.01-6.63,6.02l.07-.21c-1.14,1.1-2.27,2.21-3.41,3.31,0,0,.2-.1,.2-.1-2.13,2.14-4.26,4.28-6.39,6.42,0,0,.09-.21,.09-.21-1.11,1.13-2.22,2.26-3.34,3.4,0,0,.19-.2,.19-.2-1.14,1.11-2.27,2.22-3.41,3.32,0,0,.21-.22,.21-.22-1.13,1.12-2.26,2.23-3.39,3.35,0,0,.21-.22,.21-.22-1.18,1.06-2.37,2.13-3.55,3.19,0,0,.21-.12,.21-.12-3.23,3.16-6.47,6.31-9.7,9.47l.12-.2c-1.11,1.19-2.23,2.39-3.34,3.58-17.07,18.64-34.15,37.28-51.22,55.93-8.5,9.2-17,18.4-25.5,27.6-14.75,17.01-29.5,34.02-44.25,51.03-8.35,10.33-16.7,20.65-25.04,30.98-6.75,7.93-14.23,15.35-20.13,23.86-29.41,42.49-58.41,85.26-87.55,127.93h.15c-.94,1.28-1.87,2.56-2.81,3.85-5.35,9.22-10.69,18.43-16.04,27.65-33.83,57.66-60.17,118.17-72.86,184.3-3.08,16.04-9.89,31.36-14.99,47.02-17.51,4.9-33.96,5.11-46.83-10.58-4.48-10.59-9.47-21-13.36-31.8-30.58-84.94-90.28-143.76-167.31-187.12-7.26-4.5-14.51-9-21.77-13.51-2.1-1.06-4.19-2.12-6.29-3.18h0c-1.63-.86-3.25-1.72-4.88-2.58l-.85,.12s-.55-.66-.55-.66c-1.57-.88-3.14-1.75-4.71-2.63l-.94,.12-.67-.66c-6.49-3.01-12.98-6.02-19.47-9.04l.27,.16c-2.58-1.03-5.17-2.06-7.75-3.08l-.85,.14-.6-.62c-4.25-4.26-8.51-8.51-12.76-12.77,44.21,5.3,88.42,10.6,132.64,15.89,10.5,3.11,21,6.22,31.5,9.32,16.25,9.33,33,17.91,48.64,28.17,23.51,15.43,42.08,35.84,55.71,60.6,.93,1.7,2.54,3.02,2.99,3.54,16.49-35.62,34-70.63,48.74-106.76,5.1-12.5,4.1-27.78,4.43-41.82,.22-9.26,2.83-14.28,12.48-12.91,13.02,1.85,19.98-5.24,25.98-15.43,9.48-16.09,19.69-31.75,29.59-47.59,12.37-15.05,24.75-30.1,37.12-45.15,2.13-1.3,4.69-2.21,6.31-3.97,28.34-30.74,56.61-61.56,84.75-92.49,2.67-2.94,4.37-6.76,6.51-10.17h0c16.84-15.08,33.67-30.17,50.5-45.25,17.21-15.32,34.41-30.64,51.62-45.96,18.45-13.85,36.89-27.7,55.34-41.55,7.47-4.24,14.94-8.48,22.41-12.72,4.18-3.13,8.36-6.26,12.54-9.39,0,0-.03,.02-.03,.02,.03-.02,18.78-12.93,18.78-12.93,0,0-.1,.1-.1,.1,2-1.3,4.01-2.61,6.01-3.91,0,0-.12,.13-.12,.13,1.94-1.26,3.88-2.51,5.82-3.77"/>
    <path class="cls-7" d="M788.98,312.94l16.97-10.92s.07-.04,.07-.04c2-1.21,4-2.42,6-3.62,0,0-.16,.1-.16,.1,2.04-1.26,4.08-2.52,6.12-3.78l-.21,.14c3.31-2.03,6.62-4.05,9.94-6.08,0,0-.17-.01-.17-.01,5.32-3.12,10.63-6.24,15.95-9.35,0,0-.1,.12-.1,.12"/>
    <path class="cls-12" d="M43.72,598.69c.24-2.21,.49-4.42,.73-6.63,1.28-65.15,2.56-130.3,3.83-195.45,.4-.63,.58-1.32,.56-2.07,6.31-3.4,12.62-6.8,18.93-10.2,.88-.11,1.7-.4,2.45-.89,3.28-1.88,6.56-3.76,9.84-5.64,14.77-8.33,29.54-16.65,44.3-24.98l.11-.11c14.63-6.33,29.26-12.66,43.89-18.99,2.1-.97,4.2-1.95,6.3-2.92,8.66-1.51,17.69-9.77,25.65,1.42-9.36-2.54-13.62-.88-13.69,10.72-.33,56.73-1.51,113.46-2.72,170.19-.56,26.22-1.54,52.45-2.92,78.64-3.01,57.06-6.4,114.1-9.63,171.14-44.21-5.3-88.42-10.6-132.64-15.89-4.2-.26-8.4-.52-12.59-.79,3.15-4.51,8.55-8.78,9.04-13.56,1.88-18.38,2.2-36.91,3.09-55.39,1.82-26.2,3.65-52.39,5.47-78.59Zm80.49-174.31c-.02,28.28,4.39,31.15,26.73,18.56,10.88-6.13,6.94-16.6,7.08-25.47,.44-28.05,.29-27.48-25.82-16.15-13.29,5.77-5.45,16.15-7.98,23.06Zm-53.42,22.97c0,5.21-.69,10.57,.32,15.58,.43,2.14,4.59,5.26,6.78,5.05,21.17-2,26.79-8.37,26.83-29.31,.01-4.69-.38-9.4-.15-14.07,.46-9.53-4.79-10.15-12.06-8.2-18.69,5.03-21.7,9.29-21.72,30.96Zm85.11,64.83c.37-26.85-.61-27.88-23.29-18.43-3.94,1.64-7.48,7.5-8.55,12.04-1.64,6.99-.24,14.64-1.46,21.78-1.72,10.11,3.23,11.76,11.49,11.21,19.78-1.3,21.49-3.27,21.81-26.6Zm-3.37,87.52h.2c0-2.63,.5-5.37-.11-7.85-1.08-4.42-3.67-12.55-4.17-12.44-9.23,2.01-22.53,2.37-26.28,8.45-5.18,8.38-3.41,21.22-3.9,32.18-.09,1.99,3.04,5.66,5.06,5.96,20.84,3.08,28.92-3.96,29.2-24.73,0-.53,0-1.05,0-1.58Zm-19.17,64.22c-5.76,1.73-15.74,2.38-16.51,5.39-2.92,11.37-2.85,23.5-3.89,35.35,7.83,.53,15.77,2.02,23.44,1.15,3.5-.4,7.69-4.89,9.39-8.53,2.12-4.55,2.14-10.13,2.79-15.3,2.03-16.16,1.03-17.23-15.21-18.05Zm-34.54-57c.17-22.44-.71-23.27-22.59-15.36-3.77,1.36-7.41,5.99-8.94,9.94-2.02,5.21-1.9,11.24-2.68,16.92-1.85,13.51,.59,15.8,14.27,13.4q19.77-3.46,19.94-24.91Zm3.12-82.7c.26-22.81-1.69-24.09-23.33-15.24-.48,.2-.98,.36-1.45,.58-6.69,3.12-10.9,37.05-4.82,40.84,1.93,1.2,5.07,.84,7.61,.62,20.16-1.79,21.73-3.75,21.99-26.8Zm-27.92,185.62c5.39-1.43,14.88-1.92,15.46-4.46,2.63-11.44,2.73-23.46,3.75-35.27-7.12,.08-14.25,.37-21.37,.2-16.06-.39-10.57,12.89-12.27,20.5-3.92,17.52-2.86,18.16,14.43,19.02Z"/>
    <path class="cls-14" d="M566.1,488.27c-2.15,3.41-3.84,7.23-6.51,10.17-28.14,30.93-56.41,61.74-84.75,92.49-1.63,1.76-4.19,2.67-6.31,3.97,.81-31.58,2.34-63.17,2.23-94.75-.13-34.48-1.8-68.96-2.75-103.44-.26-9.42,1.48-19.36-.99-28.13-3.49-12.38,2.04-16.07,12.05-18.38,23.87-5.52,47.71-11.18,71.56-16.79,7.31-2.01,14.62-4.01,21.93-6.02,6.2-1.18,12.41-2.35,18.61-3.53,21.4-3.78,42.74-7.91,64.21-11.23,22.95-3.55,46.01-6.33,69.03-9.44-.28,17.45-.56,34.89-.84,52.34-18.45,13.85-36.89,27.7-55.34,41.55-16.23,1.22-32.49,2.24-48.66,4.01-1.48,.16-3.43,5.1-3.47,7.85-.18,11.36,.29,22.73,.52,34.1-16.84,15.08-33.67,30.17-50.5,45.25-.17-21.01-.54-42.02-.42-63.03,.06-10.53-1.03-17.99-14.92-13.27-7.31,2.48-15.39,2.77-23.16,3.8-8.64,1.14-12.75,5.14-12.29,14.57,.78,16.26,1.16,32.59,.46,48.84-.5,11.58,5.1,13.12,14.43,12.12,11.94-1.28,23.94-2.04,35.91-3.03Z"/>
    <path class="cls-9" d="M934.59,231.64c38.24-21,79.26-34.6,121.39-45.35-29.94,16.3-59.89,32.6-89.83,48.9-14.22,9.28-28.43,18.56-42.65,27.83-2.12,.68-4.24,1.35-6.37,2.03,11.6-9.85,23.22-19.68,34.8-29.55,1.92-1.64,3.73-3.41,7.15-6.55-9.87,1.08-17.18,1.89-24.49,2.69Z"/>
    <path class="cls-9" d="M26.11,746.24c4.2,.26,8.4,.52,12.59,.79,4.25,4.26,8.51,8.51,12.76,12.77-3.07-.72-6.14-1.45-9.21-2.17-6.08-2.39-12.15-4.79-18.23-7.18,.7-1.4,1.39-2.8,2.09-4.2Z"/>
    <path class="cls-9" d="M60.39,763.2c6.49,3.01,12.98,6.02,19.47,9.04-6.49-3.01-12.98-6.02-19.47-9.04Z"/>
    <path class="cls-9" d="M92.46,778.53c2.1,1.06,4.19,2.12,6.29,3.18-2.1-1.06-4.19-2.12-6.29-3.18Z"/>
    <path class="cls-9" d="M52.91,760.28c2.58,1.03,5.17,2.06,7.75,3.08-2.58-1.03-5.17-2.06-7.75-3.08Z"/>
    <path class="cls-6" d="M451.9,765.75c.94-1.28,1.87-2.57,2.81-3.86-.94,1.29-1.87,2.57-2.81,3.86Z"/>
    <path class="cls-9" d="M81.47,772.78c1.57,.88,3.14,1.75,4.71,2.63-1.57-.88-3.14-1.75-4.71-2.63Z"/>
    <path class="cls-9" d="M87.57,775.95c1.63,.86,3.25,1.72,4.88,2.57-1.63-.86-3.25-1.72-4.88-2.57Z"/>
    <path class="cls-4" d="M310.57,141.05c-1.14,1.05-2.27,2.1-3.41,3.15,1.14-1.05,2.27-2.1,3.41-3.15Z"/>
    <path class="cls-8" d="M549.51,182.7c.37,50.23,.73,100.47,1.1,150.7-23.85,5.61-47.69,11.28-71.56,16.79-10.01,2.31-15.54,6-12.05,18.38,2.47,8.77,.73,18.72,.99,28.13,.96,34.48,2.63,68.96,2.75,103.44,.11,31.58-1.42,63.17-2.23,94.75-12.37,15.05-24.75,30.1-37.12,45.15-.24-2.9-.6-7.24-1.01-12.5-10.4-134.49,.02-182.91,.88-349.2,.25-47.68-.24-115.88-.76-189.54-.11-15.01-.21-27.39-.27-35.67,35.29,36.19,61.01,62.72,63.29,65.22,1.78,1.95,3.03,3.38,3.03,3.38,.99,1.14,1.98,2.28,2.96,3.43,1.05,1.15,2.1,2.3,3.14,3.44l-.19-.13c2.06,2.23,4.11,4.46,6.17,6.69l-.14-.26c1.11,1.16,2.22,2.32,3.34,3.48l-.31-.03c1.99,2.25,3.98,4.5,5.97,6.75l-.06-.3c1.41,1.87,2.82,3.74,4.24,5.61h0c6.94,7.76,13.89,15.5,20.83,23.25,0,0,.02-.3,.02-.3,1.37,1.95,2.74,3.89,4.11,5.84-.08-.13-.12-.19-.12-.2,.03-.02,1.02,1.21,2.97,3.7Z"/>
    <path class="cls-2" d="M200.31,332.23c1.73,.74,3.45,1.48,5.18,2.22,2.31,1.6,4.61,3.19,6.92,4.79,1.12,5.43,3.22,10.86,3.22,16.28,.05,63.45,.54,126.92-.62,190.35-.99,53.85-3.91,107.67-6.15,161.49-.74,17.75-1.87,35.48-3.14,53.2-.28,3.94-1.88,7.79-2.87,11.68-10.5-3.11-21-6.22-31.5-9.32,3.23-57.05,6.62-114.08,9.63-171.14,1.38-26.19,2.36-52.42,2.92-78.64,1.21-56.72,2.39-113.46,2.72-170.19,.07-11.6,4.34-13.26,13.69-10.72Z"/>
    <path class="cls-3" d="M307.25,276.97c-1-22.07-2.75-42.12-2.2-62.1,.14-4.86,7.41-10.1,12.26-14.11,5.78-4.78,12.49-8.43,21.52-14.34,.95,22.05,1.39,40.7,2.69,59.3,.67,9.61-2.15,15.73-11.49,19.35-7.12,2.76-13.64,7.05-22.79,11.91Z"/>
    <path class="cls-11" d="M367.55,616.26c0-4.18-.14-8.37,.02-12.54,.91-23.43,6.67-29.48,29.46-29.6,2.62-.01,7.56,4.24,7.52,6.45-.33,17.71-.98,35.48-3.16,53.03-.38,3.06-8.14,6.44-12.96,7.49-20.84,4.5-21.64,3.62-21.37-16.97,.03-2.61,0-5.23,0-7.84,.16,0,.32,0,.48,0Z"/>
    <path class="cls-11" d="M341.79,326.11c0,22.76,.25,43.01-.15,63.24-.12,5.81-25.96,18.99-30.99,15.87-1.98-1.23-3.16-5.15-3.21-7.87-.28-15.2-.74-30.45,.31-45.58,.32-4.54,4.38-10.12,8.35-12.82,7.14-4.86,15.51-7.91,25.69-12.84Z"/>
    <path class="cls-11" d="M341.59,490.95c.01,3.15,.01,6.31,.01,9.46-.03,24.92-3.04,28.07-28.01,31.3-7.32,.95-9.57-2-9.18-8.62,.93-15.68,1.62-31.38,2.82-47.04,.43-5.58,26.71-18.35,31.43-15.3,1.68,1.09,2.69,4.27,2.79,6.54,.33,7.87,.13,15.76,.14,23.65Z"/>
    <path class="cls-3" d="M244.46,314.81c-1.11-20.12-2.53-38.21-2.79-56.31-.06-3.89,3.18-8.97,6.45-11.52,7.71-6.03,16.35-10.87,27.52-18.06,0,23.19,.43,43.37-.41,63.5-.14,3.47-5.18,7.43-8.81,9.9-6.32,4.31-13.3,7.65-21.96,12.49Z"/>
    <path class="cls-3" d="M278.51,357.9c0,20.09,.14,36.79-.06,53.49-.1,7.95-23.53,25.21-30.68,22.36-1.94-.77-3.59-4.78-3.66-7.36-.41-14.64-.77-29.32-.06-43.93,.19-3.79,3.46-8.73,6.77-10.8,7.83-4.88,16.53-8.36,27.69-13.76Z"/>
    <path class="cls-3" d="M338.18,613.14c0,4.18,.1,8.36-.02,12.54-.6,21.39-8.36,28.5-29.81,25.99-2.78-.32-7.07-5.84-7.04-8.9,.18-14.56,.04-29.44,3.05-43.56,2.95-13.86,17.82-10.31,27.37-12.25,10.18-2.07,5.73,8.41,6.59,13.68,.67,4.07,.13,8.33,.13,12.51-.09,0-.19,0-.28,0Z"/>
    <path class="cls-11" d="M275.58,513.78c0,4.18-.55,8.45,.1,12.52,2.03,12.63-2.67,18.13-15.71,20.67-19.32,3.76-19.1,4.96-18.94-14.61,.07-9.41-.66-18.94,.68-28.16,.66-4.58,4.19-10.6,8.11-12.54,26.26-13,26.41-12.7,25.76,22.12Z"/>
    <path class="cls-11" d="M332.79,729.23c-1.01,8.3-2.71,16.58-2.85,24.89-.15,8.78-3.54,11.54-12.28,11.76-24.2,.6-24.55,.69-22.63-23.5,.54-6.76,2.43-13.52,2.16-20.21-.41-10,2.95-13.15,13.36-13.83,22.17-1.44,22.12-2.31,22.24,20.9Z"/>
    <path class="cls-3" d="M272.39,629.02c0,2.09,.02,4.18,0,6.27-.31,24.14-1.1,24.87-25.15,26.3-6.22,.37-10.05-1-9.77-8.34,.47-12.52-.17-25.13,1.11-37.56,.39-3.82,4.87-9.04,8.6-10.32,7.57-2.6,15.9-3,23.96-3.9,.2-.02,1.26,4.67,1.33,7.18,.19,6.78,.07,13.58,.07,20.37-.05,0-.09,0-.14,0Z"/>
    <path class="cls-11" d="M230.98,745.61c.8-7.25,.81-14.72,2.74-21.66,1-3.59,4.92-7.96,8.38-8.95,6.88-1.95,15.14-3.89,21.23-1.6,2.89,1.08,2.63,11.9,2.87,18.34,.32,8.35-.46,16.74-.42,25.1,.04,8.64-3.89,11.64-12.56,11.82-22.87,.48-22.86,.85-22.24-23.05Z"/>
    <path class="cls-3" d="M616.6,443.02c-.23-11.37-.7-22.74-.52-34.1,.04-2.75,1.99-7.69,3.47-7.85,16.17-1.77,32.43-2.79,48.66-4.01-17.21,15.32-34.41,30.64-51.62,45.96Z"/>
    <path class="cls-10" d="M724.4,303.18c7.19,11.66,14.38,23.32,21.57,34.98,0,1.54,0,3.09,0,4.63-7.47,4.24-14.94,8.48-22.41,12.72,.28-17.45,.56-34.89,.84-52.34Z"/>
    <path class="cls-9" d="M721.17,431.73c-3.23,3.16-6.47,6.31-9.7,9.47,3.23-3.16,6.47-6.31,9.7-9.47Z"/>
    <path class="cls-9" d="M778.15,378.24c-3.32,3.05-6.64,6.1-9.96,9.15,3.32-3.05,6.64-6.1,9.96-9.15Z"/>
    <path class="cls-9" d="M768.26,387.31c-3.85,3.48-7.71,6.96-11.56,10.44-1.65-9.57,5.77-9.11,11.56-10.44Z"/>
    <path class="cls-9" d="M889.84,253.99c3.55-1.98,7.1-3.96,10.65-5.94-3.55,1.98-7.1,3.96-10.65,5.94Z"/>
    <path class="cls-9" d="M740.33,413.02c-2.13,2.14-4.26,4.28-6.39,6.42,2.13-2.14,4.26-4.28,6.39-6.42Z"/>
    <path class="cls-9" d="M756.47,397.91c-2.11,2.01-4.21,4.02-6.32,6.03,2.11-2.01,4.21-4.02,6.32-6.03Z"/>
    <path class="cls-9" d="M917.26,264.97c-2.38,1.82-4.75,3.65-7.13,5.47,2.38-1.82,4.75-3.65,7.13-5.47Z"/>
    <path class="cls-9" d="M905.19,273.94c-3.28,2.39-6.57,4.77-9.85,7.16,3.28-2.39,6.57-4.77,9.85-7.16Z"/>
    <path class="cls-9" d="M847.61,318.29s-6.92,5.73-6.97,5.77c2.37-1.87,4.65-3.84,6.97-5.77Z"/>
    <path class="cls-9" d="M750.08,404c-2.21,2.01-4.42,4.01-6.63,6.02,2.21-2.01,4.42-4.01,6.63-6.02Z"/>
    <path class="cls-9" d="M777.15,320.59c2-1.3,4.01-2.61,6.01-3.91-2,1.3-4.01,2.61-6.01,3.91Z"/>
    <path class="cls-9" d="M791.25,365.98c-1.46,1.56-2.92,3.12-4.38,4.68,1.46-1.56,2.92-3.12,4.38-4.68Z"/>
    <path class="cls-9" d="M799.85,358.91c-1.78,1.45-3.56,2.91-5.34,4.36,1.78-1.45,3.56-2.91,5.34-4.36Z"/>
    <path class="cls-9" d="M927.34,234.87c2.49-1.13,4.98-2.27,7.47-3.4-2.49,1.13-4.98,2.27-7.47,3.4Z"/>
    <path class="cls-9" d="M906.77,244.98c2.13-1.06,4.27-2.12,6.4-3.17-2.13,1.06-4.27,2.12-6.4,3.17Z"/>
    <path class="cls-9" d="M900.4,248.1c2.15-1.05,4.3-2.1,6.45-3.16-2.15,1.05-4.3,2.1-6.45,3.16Z"/>
    <path class="cls-9" d="M871.72,263.57c2.13-1.14,4.26-2.29,6.39-3.43-2.13,1.14-4.26,2.29-6.39,3.43Z"/>
    <path class="cls-9" d="M843.39,279.48c2.07-1.22,4.15-2.43,6.22-3.65-2.07,1.22-4.15,2.43-6.22,3.65Z"/>
    <path class="cls-9" d="M811.86,298.46c2.04-1.26,4.08-2.52,6.12-3.78-2.04,1.26-4.08,2.52-6.12,3.78Z"/>
    <path class="cls-9" d="M806.02,301.97c2-1.21,4-2.42,6-3.62-2,1.21-4,2.42-6,3.62Z"/>
    <path class="cls-9" d="M724.51,428.66c-1.18,1.06-2.37,2.13-3.55,3.19,1.18-1.06,2.37-2.13,3.55-3.19Z"/>
    <path class="cls-9" d="M711.59,441c-1.11,1.19-2.23,2.39-3.34,3.58,1.11-1.19,2.23-2.39,3.34-3.58Z"/>
    <path class="cls-9" d="M803.11,355.76c-1.14,1.08-2.27,2.17-3.41,3.25,1.14-1.08,2.27-2.17,3.41-3.25Z"/>
    <path class="cls-9" d="M781.46,375.16c-1.18,1.06-2.35,2.13-3.53,3.19,1.18-1.06,2.35-2.13,3.53-3.19Z"/>
    <path class="cls-9" d="M743.53,409.81c-1.14,1.1-2.27,2.21-3.41,3.31,1.14-1.1,2.27-2.21,3.41-3.31Z"/>
    <path class="cls-9" d="M785.18,371.85c-1.32,1.16-2.65,2.33-3.97,3.49,1.32-1.16,2.65-2.33,3.97-3.49Z"/>
    <path class="cls-9" d="M734.03,419.23c-1.11,1.13-2.22,2.26-3.34,3.4,1.11-1.13,2.22-2.26,3.34-3.4Z"/>
    <path class="cls-9" d="M730.89,422.42c-1.14,1.11-2.27,2.22-3.41,3.32,1.14-1.11,2.27-2.22,3.41-3.32Z"/>
    <path class="cls-9" d="M910.18,270.39c-1.11,.86-2.21,1.72-3.32,2.58,1.11-.86,2.21-1.72,3.32-2.58Z"/>
    <path class="cls-9" d="M794.43,363.21c-1.11,.97-2.23,1.94-3.34,2.91,1.11-.97,2.23-1.94,3.34-2.91Z"/>
    <path class="cls-9" d="M727.69,425.53c-1.13,1.12-2.26,2.23-3.39,3.35,1.13-1.12,2.26-2.23,3.39-3.35Z"/>
    <path class="cls-13" d="M43.72,598.69c-1.82,26.2-3.65,52.39-5.47,78.59-.87-6.99-2.66-14-2.44-20.95,.55-17.47,1.88-34.93,3.31-52.36,.15-1.87,3-3.53,4.6-5.28Z"/>
    <path class="cls-11" d="M124.21,424.38c2.53-6.91-5.31-17.29,7.98-23.06,26.11-11.33,26.26-11.9,25.82,16.15-.14,8.87,3.8,19.34-7.08,25.47-22.34,12.59-26.75,9.72-26.73-18.56Z"/>
    <path class="cls-3" d="M70.79,447.35c.02-21.67,3.03-25.93,21.72-30.96,7.27-1.96,12.52-1.33,12.06,8.2-.22,4.68,.16,9.38,.15,14.07-.05,20.94-5.66,27.31-26.83,29.31-2.19,.21-6.34-2.91-6.78-5.05-1.02-5.01-.32-10.36-.33-15.58Z"/>
    <path class="cls-3" d="M152.53,599.7c0,.53,0,1.05,0,1.58-.27,20.77-8.36,27.8-29.2,24.73-2.02-.3-5.15-3.98-5.06-5.96,.49-10.96-1.28-23.8,3.9-32.18,3.75-6.07,17.05-6.44,26.28-8.45,.5-.11,3.09,8.01,4.17,12.44,.61,2.48,.11,5.22,.11,7.85h-.2Z"/>
    <path class="cls-11" d="M133.36,663.92c16.24,.81,17.24,1.89,15.21,18.05-.65,5.17-.67,10.75-2.79,15.3-1.7,3.65-5.88,8.14-9.39,8.53-7.67,.87-15.61-.62-23.44-1.15,1.05-11.85,.97-23.98,3.89-35.35,.77-3.01,10.76-3.66,16.51-5.39Z"/>
    <path class="cls-3" d="M98.82,606.91q-.16,21.45-19.94,24.91c-13.69,2.4-16.12,.11-14.27-13.4,.78-5.68,.67-11.72,2.68-16.92,1.53-3.96,5.17-8.58,8.94-9.94,21.88-7.91,22.76-7.08,22.59,15.36Z"/>
    <path class="cls-7" d="M101.94,524.22c-.27,23.04-1.83,25-21.99,26.8-2.53,.23-5.68,.58-7.61-.62-6.08-3.78-1.88-37.71,4.82-40.84,.47-.22,.97-.38,1.45-.58,21.63-8.85,23.59-7.58,23.33,15.24Z"/>
    <path class="cls-11" d="M74.02,709.84c-17.29-.87-18.36-1.5-14.43-19.02,1.7-7.61-3.78-20.89,12.27-20.5,7.12,.17,14.24-.12,21.37-.2-1.02,11.81-1.12,23.83-3.75,35.27-.58,2.54-10.07,3.03-15.46,4.46Z"/>
    <path class="cls-6" d="M517.51,145.11c-1.99-2.25-3.98-4.5-5.97-6.75,1.99,2.25,3.98,4.5,5.97,6.75Z"/>
    <path class="cls-6" d="M508.65,135.16c-2.06-2.23-4.11-4.46-6.17-6.69,2.06,2.23,4.11,4.46,6.17,6.69Z"/>
    <path class="cls-6" d="M496.56,121.73c-1.01-1.13-2.02-2.25-3.03-3.38,1.01,1.13,2.02,2.25,3.03,3.38Z"/>
    <path class="cls-6" d="M521.69,150.42c-1.41-1.87-2.82-3.74-4.24-5.61,1.41,1.87,2.82,3.74,4.24,5.61Z"/>
    <path class="cls-6" d="M546.66,179.19c-1.37-1.95-2.74-3.89-4.11-5.84,1.37,1.95,2.74,3.89,4.11,5.84Z"/>
    <path class="cls-6" d="M549.82,182.51c-1.09-1.17-2.19-2.34-3.28-3.51,1.09,1.17,2.19,2.34,3.28,3.51Z"/>
    <path class="cls-6" d="M511.85,138.39l-3.34-3.48,3.34,3.48Z"/>
    <path class="cls-6" d="M502.67,128.6c-1.05-1.15-2.1-2.3-3.14-3.44,1.05,1.15,2.1,2.3,3.14,3.44Z"/>
    <path class="cls-15" d="M556.48,194.55c-1.03,2.1-2.06,4.2-3.1,6.3,1.03-2.1,2.06-4.2,3.1-6.3Z"/>
  </g>
</svg>